v 0.000000 1.500000 0.000000
v 0.750000 1.335938 0.000000
v 1.500000 1.312500 0.000000
v 2.250000 1.007812 0.000000
v 3.000000 0.000000 0.000000
v 0.000000 1.335938 0.750000
v 0.750000 1.257935 0.750000
v 1.500000 1.116211 0.750000
v 2.250000 0.926147 0.750000
v 3.000000 0.703125 0.750000
v 0.000000 1.312500 1.500000
v 0.750000 1.116211 1.500000
v 1.500000 1.007812 1.500000
v 2.250000 1.004883 1.500000
v 3.000000 1.125000 1.500000
v 0.000000 1.007812 2.250000
v 0.750000 0.926147 2.250000
v 1.500000 1.004883 2.250000
v 2.250000 1.079224 2.250000
v 3.000000 0.984375 2.250000
v 0.000000 0.000000 3.000000
v 0.750000 0.703125 3.000000
v 1.500000 1.125000 3.000000
v 2.250000 0.984375 3.000000
v 3.000000 0.000000 3.000000
f 1 6 2
f 2 6 7
f 2 7 3
f 3 7 8
f 3 8 4
f 4 8 9
f 4 9 5
f 5 9 10
f 6 11 7
f 7 11 12
f 7 12 8
f 8 12 13
f 8 13 9
f 9 13 14
f 9 14 10
f 10 14 15
f 11 16 12
f 12 16 17
f 12 17 13
f 13 17 18
f 13 18 14
f 14 18 19
f 14 19 15
f 15 19 20
f 16 21 17
f 17 21 22
f 17 22 18
f 18 22 23
f 18 23 19
f 19 23 24
f 19 24 20
f 20 24 25
